
<svg width="152" height="152" xmlns="http://www.w3.org/2000/svg">
  <defs>
    <linearGradient id="bgGradient" x1="0%" y1="0%" x2="100%" y2="100%">
      <stop offset="0%" style="stop-color:#1a1a2e;stop-opacity:1" />
      <stop offset="100%" style="stop-color:#2d2d44;stop-opacity:1" />
    </linearGradient>
    <linearGradient id="cardGradient" x1="0%" y1="0%" x2="100%" y2="100%">
      <stop offset="0%" style="stop-color:#4a90e2;stop-opacity:1" />
      <stop offset="100%" style="stop-color:#2d5f9e;stop-opacity:1" />
    </linearGradient>
  </defs>

  <!-- Background -->
  <rect width="152" height="152" rx="30.400000000000002" fill="url(#bgGradient)"/>

  <!-- Card shape -->
  <rect x="30.400000000000002" y="22.8"
        width="91.2" height="106.39999999999999"
        rx="7.6000000000000005"
        fill="url(#cardGradient)"
        stroke="#fff"
        stroke-width="3.04"/>

  <!-- Heart icon (health) -->
  <path d="M 53.199999999999996 45.6
           C 53.199999999999996 38, 45.6 33.44, 41.040000000000006 38
           C 36.48 42.56, 36.48 48.64, 41.040000000000006 53.199999999999996
           L 53.199999999999996 63.839999999999996
           L 65.36 53.199999999999996
           C 69.92 48.64, 69.92 42.56, 65.36 38
           C 60.800000000000004 33.44, 53.199999999999996 38, 53.199999999999996 45.6 Z"
        fill="#ff6b6b"/>

  <!-- Sword icon (attack) -->
  <g transform="rotate(-45 98.8 60.800000000000004)">
    <rect x="95.76" y="45.6"
          width="6.08" height="22.8"
          fill="#ffd93d"/>
    <polygon points="98.8,42.56 94.24,48.64 103.36000000000001,48.64"
             fill="#ffed4e"/>
  </g>

  <!-- Game title text -->
  <text x="76" y="98.8"
        font-family="Arial, sans-serif"
        font-size="12.16"
        font-weight="bold"
        fill="#fff"
        text-anchor="middle">BB</text>
</svg>
