
<svg width="192" height="192" xmlns="http://www.w3.org/2000/svg">
  <defs>
    <linearGradient id="bgGradient" x1="0%" y1="0%" x2="100%" y2="100%">
      <stop offset="0%" style="stop-color:#1a1a2e;stop-opacity:1" />
      <stop offset="100%" style="stop-color:#2d2d44;stop-opacity:1" />
    </linearGradient>
    <linearGradient id="cardGradient" x1="0%" y1="0%" x2="100%" y2="100%">
      <stop offset="0%" style="stop-color:#4a90e2;stop-opacity:1" />
      <stop offset="100%" style="stop-color:#2d5f9e;stop-opacity:1" />
    </linearGradient>
  </defs>

  <!-- Background -->
  <rect width="192" height="192" rx="38.400000000000006" fill="url(#bgGradient)"/>

  <!-- Card shape -->
  <rect x="38.400000000000006" y="28.799999999999997"
        width="115.19999999999999" height="134.39999999999998"
        rx="9.600000000000001"
        fill="url(#cardGradient)"
        stroke="#fff"
        stroke-width="3.84"/>

  <!-- Heart icon (health) -->
  <path d="M 67.19999999999999 57.599999999999994
           C 67.19999999999999 48, 57.599999999999994 42.24, 51.84 48
           C 46.08 53.760000000000005, 46.08 61.44, 51.84 67.19999999999999
           L 67.19999999999999 80.64
           L 82.56 67.19999999999999
           C 88.32000000000001 61.44, 88.32000000000001 53.760000000000005, 82.56 48
           C 76.80000000000001 42.24, 67.19999999999999 48, 67.19999999999999 57.599999999999994 Z"
        fill="#ff6b6b"/>

  <!-- Sword icon (attack) -->
  <g transform="rotate(-45 124.80000000000001 76.80000000000001)">
    <rect x="120.96000000000001" y="57.599999999999994"
          width="7.68" height="28.799999999999997"
          fill="#ffd93d"/>
    <polygon points="124.80000000000001,53.760000000000005 119.03999999999999,61.44 130.56,61.44"
             fill="#ffed4e"/>
  </g>

  <!-- Game title text -->
  <text x="96" y="124.80000000000001"
        font-family="Arial, sans-serif"
        font-size="15.36"
        font-weight="bold"
        fill="#fff"
        text-anchor="middle">BB</text>
</svg>
