
<svg width="384" height="384" xmlns="http://www.w3.org/2000/svg">
  <defs>
    <linearGradient id="bgGradient" x1="0%" y1="0%" x2="100%" y2="100%">
      <stop offset="0%" style="stop-color:#1a1a2e;stop-opacity:1" />
      <stop offset="100%" style="stop-color:#2d2d44;stop-opacity:1" />
    </linearGradient>
    <linearGradient id="cardGradient" x1="0%" y1="0%" x2="100%" y2="100%">
      <stop offset="0%" style="stop-color:#4a90e2;stop-opacity:1" />
      <stop offset="100%" style="stop-color:#2d5f9e;stop-opacity:1" />
    </linearGradient>
  </defs>

  <!-- Background -->
  <rect width="384" height="384" rx="76.80000000000001" fill="url(#bgGradient)"/>

  <!-- Card shape -->
  <rect x="76.80000000000001" y="57.599999999999994"
        width="230.39999999999998" height="268.79999999999995"
        rx="19.200000000000003"
        fill="url(#cardGradient)"
        stroke="#fff"
        stroke-width="7.68"/>

  <!-- Heart icon (health) -->
  <path d="M 134.39999999999998 115.19999999999999
           C 134.39999999999998 96, 115.19999999999999 84.48, 103.68 96
           C 92.16 107.52000000000001, 92.16 122.88, 103.68 134.39999999999998
           L 134.39999999999998 161.28
           L 165.12 134.39999999999998
           C 176.64000000000001 122.88, 176.64000000000001 107.52000000000001, 165.12 96
           C 153.60000000000002 84.48, 134.39999999999998 96, 134.39999999999998 115.19999999999999 Z"
        fill="#ff6b6b"/>

  <!-- Sword icon (attack) -->
  <g transform="rotate(-45 249.60000000000002 153.60000000000002)">
    <rect x="241.92000000000002" y="115.19999999999999"
          width="15.36" height="57.599999999999994"
          fill="#ffd93d"/>
    <polygon points="249.60000000000002,107.52000000000001 238.07999999999998,122.88 261.12,122.88"
             fill="#ffed4e"/>
  </g>

  <!-- Game title text -->
  <text x="192" y="249.60000000000002"
        font-family="Arial, sans-serif"
        font-size="30.72"
        font-weight="bold"
        fill="#fff"
        text-anchor="middle">BB</text>
</svg>
