
<svg width="512" height="512" xmlns="http://www.w3.org/2000/svg">
  <defs>
    <linearGradient id="bgGradient" x1="0%" y1="0%" x2="100%" y2="100%">
      <stop offset="0%" style="stop-color:#1a1a2e;stop-opacity:1" />
      <stop offset="100%" style="stop-color:#2d2d44;stop-opacity:1" />
    </linearGradient>
    <linearGradient id="cardGradient" x1="0%" y1="0%" x2="100%" y2="100%">
      <stop offset="0%" style="stop-color:#4a90e2;stop-opacity:1" />
      <stop offset="100%" style="stop-color:#2d5f9e;stop-opacity:1" />
    </linearGradient>
  </defs>

  <!-- Background -->
  <rect width="512" height="512" rx="102.4" fill="url(#bgGradient)"/>

  <!-- Card shape -->
  <rect x="102.4" y="76.8"
        width="307.2" height="358.4"
        rx="25.6"
        fill="url(#cardGradient)"
        stroke="#fff"
        stroke-width="10.24"/>

  <!-- Heart icon (health) -->
  <path d="M 179.2 153.6
           C 179.2 128, 153.6 112.64, 138.24 128
           C 122.88 143.36, 122.88 163.84, 138.24 179.2
           L 179.2 215.04
           L 220.16 179.2
           C 235.52 163.84, 235.52 143.36, 220.16 128
           C 204.8 112.64, 179.2 128, 179.2 153.6 Z"
        fill="#ff6b6b"/>

  <!-- Sword icon (attack) -->
  <g transform="rotate(-45 332.8 204.8)">
    <rect x="322.56" y="153.6"
          width="20.48" height="76.8"
          fill="#ffd93d"/>
    <polygon points="332.8,143.36 317.44,163.84 348.16,163.84"
             fill="#ffed4e"/>
  </g>

  <!-- Game title text -->
  <text x="256" y="332.8"
        font-family="Arial, sans-serif"
        font-size="40.96"
        font-weight="bold"
        fill="#fff"
        text-anchor="middle">BB</text>
</svg>
